<?xml version="1.0" encoding="utf-8"?>
<!-- Generator: Adobe Illustrator 28.3.0, SVG Export Plug-In . SVG Version: 6.00 Build 0)  -->
<svg version="1.1" id="Layer_1" xmlns="http://www.w3.org/2000/svg" xmlns:xlink="http://www.w3.org/1999/xlink" x="0px" y="0px"
	 viewBox="0 0 128 128" style="enable-background:new 0 0 128 128;" xml:space="preserve">
<style type="text/css">
	.st0{fill-rule:evenodd;clip-rule:evenodd;fill:#FFFFFF;}
</style>
<path class="st0" d="M64,4.5C31.1,4.5,4.5,31.1,4.5,64c0,32.9,26.7,59.5,59.5,59.5c32.9,0,59.5-26.7,59.5-59.5
	C123.5,31.1,96.9,4.5,64,4.5z M69.7,41.7l19.4,19.4c1.6,1.6,1.6,4.3,0,5.9L69.7,86.3c-1.6,1.6-4.3,1.6-5.9,0c-1.6-1.6-1.6-4.3,0-5.9
	l12.3-12.3H41.8c-2.3,0-4.2-1.9-4.2-4.2s1.9-4.2,4.2-4.2h34.3L63.8,47.6c-1.6-1.6-1.6-4.3,0-5.9C65.5,40.1,68.1,40.1,69.7,41.7z"/>
</svg>
